<svg width="174" height="33" viewBox="0 0 174 33" fill="none" xmlns="http://www.w3.org/2000/svg">
<path d="M16.8644 0C17.6592 12.1582 31.3492 10.5782 31.3492 16.0022C31.3492 20.4242 24.8462 22.7942 16.8211 22.7942C8.79589 22.7942 2.2929 20.4242 2.2929 16.0022C2.28809 10.5782 15.9781 12.1582 16.7777 0C7.50493 0.0240851 0 7.20146 0 16.06C0 24.9185 7.52901 32.1199 16.8211 32.1199C26.1131 32.1199 33.6421 24.9281 33.6421 16.06C33.6421 7.19182 26.1324 0.0240851 16.8644 0Z" fill="#E6FF00"/>
<path d="M36.2431 2.65858H60.5551C62.6826 2.65858 64.5712 2.76615 66.2207 2.9813C67.8701 3.19645 69.2567 3.57894 70.3802 4.12877C71.5277 4.6786 72.3883 5.44357 72.962 6.4237C73.5597 7.40383 73.8585 8.65887 73.8585 10.1888C73.8585 11.7905 73.6075 13.0933 73.1055 14.0974C72.6274 15.1014 71.8385 15.8664 70.7388 16.3923C69.6631 16.9182 68.2287 17.2888 66.4358 17.5039C64.6429 17.6952 62.4555 17.8027 59.8737 17.8266L65.7904 16.1413V18.8665L59.8737 17.5039C62.2404 17.5995 64.2604 17.7549 65.9338 17.9701C67.6072 18.1613 68.9698 18.484 70.0217 18.9382C71.0974 19.3685 71.9221 20.014 72.4959 20.8746C73.0696 21.7113 73.4401 22.8468 73.6075 24.2811C73.6553 24.7592 73.7031 25.333 73.7509 26.0023C73.8226 26.6478 73.8943 27.2932 73.9661 27.9387C74.0617 28.5841 74.1573 29.122 74.2529 29.5523H59.8737C58.9653 29.5523 58.2362 29.4686 57.6864 29.3013C57.1605 29.1101 56.766 28.7873 56.5031 28.3331C56.264 27.8789 56.1206 27.2813 56.0728 26.5402C56.025 25.6318 55.9652 24.8668 55.8935 24.2453C55.8457 23.6237 55.7739 23.1098 55.6783 22.7034C55.5827 22.297 55.4632 21.9743 55.3197 21.7352C55.2002 21.4961 55.0329 21.3288 54.8177 21.2332C54.6265 21.1137 54.3874 21.0539 54.1006 21.0539C54.0049 21.0539 53.9093 21.0539 53.8137 21.0539C53.7181 21.0539 53.6224 21.0539 53.5268 21.0539C53.4312 21.0539 53.3356 21.0539 53.24 21.0539C53.1682 21.0539 53.0965 21.0658 53.0248 21.0897C52.9531 21.0897 52.8814 21.0897 52.8097 21.0897L52.4869 15.0297C52.7499 15.0536 52.977 15.0775 53.1682 15.1014C53.3834 15.1014 53.5866 15.1014 53.7778 15.1014C53.9691 15.1014 54.1484 15.1014 54.3157 15.1014C54.507 15.1014 54.7102 15.1014 54.9253 15.1014C55.3078 15.1014 55.6066 15.0058 55.8218 14.8145C56.0608 14.6233 56.2282 14.3245 56.3238 13.9181C56.4194 13.5117 56.4672 12.9619 56.4672 12.2686C56.4672 11.7427 56.4313 11.3124 56.3596 10.9777C56.3118 10.6191 56.2162 10.3442 56.0728 10.153C55.9293 9.96172 55.75 9.83024 55.5349 9.75852C55.3436 9.6629 55.0926 9.61509 54.7819 9.61509C54.6862 9.61509 54.5548 9.61509 54.3874 9.61509C54.2201 9.61509 54.0408 9.62704 53.8496 9.65095C53.6583 9.65095 53.4551 9.6629 53.24 9.68681C53.0248 9.68681 52.8097 9.69876 52.5945 9.72266C52.4033 9.72266 52.212 9.73462 52.0208 9.75852C51.8295 9.75852 51.6741 9.77048 51.5546 9.79438L53.6344 8.10904C53.6344 10.1171 53.6344 12.173 53.6344 14.2767C53.6583 16.3804 53.6942 18.4004 53.742 20.3367C53.8137 22.2731 53.8974 24.0421 53.993 25.6438C54.0886 27.2215 54.2201 28.5244 54.3874 29.5523H36.2431C36.2909 28.2614 36.3268 26.9466 36.3507 25.6079C36.3985 24.2692 36.4224 22.8349 36.4224 21.3049C36.4463 19.751 36.4583 18.0179 36.4583 16.1054C36.4583 13.2607 36.4463 10.7984 36.4224 8.71863C36.3985 6.61494 36.3387 4.59493 36.2431 2.65858Z" fill="#DAD9D9"/>
<path d="M82.5824 18.2569C83.2757 18.2569 84.0765 18.2689 84.9849 18.2928C85.9172 18.2928 86.8854 18.2928 87.8895 18.2928C88.9174 18.2928 89.9095 18.3048 90.8657 18.3287C91.8458 18.3287 92.7064 18.3287 93.4475 18.3287C94.1408 18.3287 94.9416 18.3287 95.85 18.3287C96.7823 18.3287 97.7385 18.3287 98.7187 18.3287C99.7227 18.3287 100.667 18.3287 101.551 18.3287C102.46 18.3048 103.237 18.2808 103.882 18.2569L104.456 25.0342C103.595 25.0103 102.675 24.9983 101.695 24.9983C100.715 24.9744 99.7227 24.9624 98.7187 24.9624C97.7146 24.9624 96.7584 24.9624 95.85 24.9624C94.9416 24.9624 94.1288 24.9624 93.4116 24.9624C92.7184 24.9624 91.9056 24.9624 90.9733 24.9624C90.0649 24.9624 89.0967 24.9624 88.0687 24.9624C87.0647 24.9624 86.0607 24.9744 85.0566 24.9983C84.0765 24.9983 83.1562 25.0103 82.2956 25.0342L82.5824 18.2569ZM114.676 29.5523H94.6308C94.6786 28.9308 94.7145 28.2256 94.7384 27.4367C94.7623 26.6239 94.7743 25.7513 94.7743 24.819C94.7743 23.8628 94.7623 22.8588 94.7384 21.8069C94.7384 20.7312 94.7145 19.6435 94.6667 18.5438C94.6189 17.4442 94.5352 16.3325 94.4157 15.209C94.32 14.0854 94.1886 12.9738 94.0212 11.8742C93.9256 11.2287 93.818 10.4996 93.6985 9.68681C93.579 8.87402 93.4714 8.09709 93.3758 7.35602C93.3041 6.59104 93.2323 5.94559 93.1606 5.41967L94.595 7.35602H91.9056L93.3399 5.41967C93.2921 5.94559 93.2204 6.59104 93.1248 7.35602C93.0291 8.09709 92.9335 8.87402 92.8379 9.68681C92.7662 10.4757 92.6706 11.2048 92.551 11.8742C92.3837 13.189 92.2403 14.5277 92.1207 15.8903C92.0012 17.2529 91.9056 18.6036 91.8339 19.9423C91.7861 21.2571 91.7621 22.5241 91.7621 23.7433C91.7621 24.9385 91.7741 26.0382 91.798 27.0422C91.8219 28.0224 91.8697 28.859 91.9414 29.5523H73.7613C74.0003 28.5722 74.2513 27.4247 74.5143 26.1099C74.7773 24.7951 75.0522 23.3727 75.339 21.8428C75.6259 20.3128 75.8889 18.759 76.1279 17.1812C76.3909 15.5795 76.6419 14.0257 76.881 12.5196C77.12 10.9897 77.3352 9.56728 77.5264 8.25247C77.7176 6.93767 77.873 5.80216 77.9926 4.84594C78.1121 3.86581 78.1838 3.13669 78.2077 2.65858H109.799C109.847 3.16059 109.942 3.90167 110.086 4.88179C110.229 5.83802 110.408 6.98548 110.624 8.32419C110.839 9.639 111.066 11.0614 111.305 12.5913C111.568 14.0974 111.843 15.6512 112.13 17.2529C112.417 18.8307 112.703 20.3845 112.99 21.9145C113.301 23.4205 113.588 24.831 113.851 26.1458C114.138 27.4606 114.413 28.5961 114.676 29.5523Z" fill="#DAD9D9"/>
<path d="M133.782 29.5523H115.243C115.291 28.5961 115.315 27.6279 115.315 26.6478C115.339 25.6438 115.351 24.6039 115.351 23.5281C115.351 22.4524 115.351 21.3049 115.351 20.0857C115.351 18.8665 115.351 17.5398 115.351 16.1054C115.351 14.6711 115.351 13.3444 115.351 12.1252C115.351 10.906 115.351 9.75852 115.351 8.68277C115.351 7.58312 115.339 6.54323 115.315 5.5631C115.315 4.58297 115.291 3.6148 115.243 2.65858H133.782C133.758 3.6148 133.734 4.58297 133.71 5.5631C133.71 6.54323 133.71 7.57117 133.71 8.64692C133.71 9.72266 133.71 10.8701 133.71 12.0893C133.71 13.3085 133.71 14.6353 133.71 16.0696C133.71 17.5039 133.71 18.8307 133.71 20.0499C133.71 21.269 133.71 22.4285 133.71 23.5281C133.734 24.6039 133.746 25.6438 133.746 26.6478C133.77 27.6279 133.782 28.5961 133.782 29.5523Z" fill="#DAD9D9"/>
<path d="M135.699 29.5523C135.699 27.7116 135.711 25.7274 135.735 23.5998C135.759 21.4722 135.771 18.9741 135.771 16.1054C135.771 14.193 135.771 12.4718 135.771 10.9418C135.795 9.38799 135.795 7.9417 135.771 6.60299C135.771 5.24038 135.747 3.92557 135.699 2.65858H155.421C155.469 2.87373 155.529 3.13669 155.6 3.44746C155.696 3.75823 155.815 4.10486 155.959 4.48735C156.102 4.86984 156.234 5.26428 156.353 5.67068C156.473 6.07707 156.604 6.48346 156.748 6.88986C156.891 7.29625 157.035 7.70265 157.178 8.10904C157.345 8.49153 157.465 8.86207 157.537 9.22065C157.824 10.0095 158.086 10.8223 158.326 11.659C158.565 12.4957 158.804 13.3683 159.043 14.2767C159.282 15.1851 159.473 16.1533 159.616 17.1812L158.29 13.3444L159.652 13.0933L159.258 17.1812C159.138 16.1533 159.043 15.1373 158.971 14.1332C158.899 13.1053 158.839 12.1491 158.792 11.2646C158.768 10.3801 158.732 9.60314 158.684 8.93378C158.66 8.45567 158.636 7.98951 158.612 7.53531C158.612 7.0811 158.6 6.6269 158.577 6.17269C158.577 5.71849 158.565 5.28819 158.541 4.88179C158.541 4.45149 158.529 4.05705 158.505 3.69847C158.505 3.31598 158.493 2.96935 158.469 2.65858H173.386C173.362 3.28012 173.338 4.05705 173.314 4.98937C173.29 5.92168 173.267 6.97353 173.243 8.1449C173.219 9.31627 173.195 10.5713 173.171 11.91C173.171 13.2487 173.171 14.6353 173.171 16.0696C173.171 19.0817 173.171 21.6635 173.171 23.815C173.195 25.9426 173.255 27.855 173.35 29.5523H154.094C153.927 29.1698 153.772 28.7993 153.628 28.4407C153.485 28.0582 153.353 27.6996 153.234 27.365C153.114 27.0064 152.983 26.6597 152.839 26.3251C152.72 25.9904 152.588 25.6438 152.445 25.2852C152.325 24.9266 152.182 24.58 152.014 24.2453C151.584 23.1934 151.214 22.1416 150.903 21.0897C150.592 20.014 150.305 18.9502 150.042 17.8984C149.779 16.8465 149.504 15.7947 149.218 14.7428L150.939 18.8307L149.612 19.1893L149.648 14.6353C149.887 16.0218 150.054 17.2888 150.15 18.4362C150.245 19.5598 150.317 20.6594 150.365 21.7352C150.437 22.787 150.496 23.9106 150.544 25.1059C150.568 25.6796 150.58 26.1936 150.58 26.6478C150.604 27.102 150.616 27.5203 150.616 27.9028C150.616 28.2614 150.616 28.5841 150.616 28.871C150.64 29.134 150.676 29.3611 150.724 29.5523H135.699Z" fill="#DAD9D9"/>
</svg>
