<svg width="183" height="40" viewBox="0 0 183 40" fill="none" xmlns="http://www.w3.org/2000/svg">
<path d="M45.3613 5.80701H69.6732C71.8008 5.80701 73.6893 5.91459 75.3388 6.12974C76.9883 6.34489 78.3748 6.72737 79.4984 7.2772C80.6459 7.82703 81.5065 8.59201 82.0802 9.57213C82.6778 10.5523 82.9767 11.8073 82.9767 13.3373C82.9767 14.9389 82.7256 16.2418 82.2236 17.2458C81.7455 18.2498 80.9566 19.0148 79.857 19.5407C78.7812 20.0667 77.3469 20.4372 75.554 20.6524C73.7611 20.8436 71.5737 20.9512 68.9919 20.9751L74.9085 19.2897V22.015L68.9919 20.6524C71.3586 20.748 73.3786 20.9034 75.052 21.1185C76.7254 21.3098 78.088 21.6325 79.1398 22.0867C80.2156 22.517 81.0403 23.1624 81.614 24.023C82.1878 24.8597 82.5583 25.9952 82.7256 27.4296C82.7735 27.9077 82.8213 28.4814 82.8691 29.1508C82.9408 29.7962 83.0125 30.4417 83.0842 31.0871C83.1798 31.7326 83.2755 32.2704 83.3711 32.7007H68.9919C68.0835 32.7007 67.3544 32.6171 66.8046 32.4497C66.2786 32.2585 65.8842 31.9358 65.6212 31.4816C65.3822 31.0274 65.2387 30.4297 65.1909 29.6886C65.1431 28.7802 65.0834 28.0153 65.0116 27.3937C64.9638 26.7722 64.8921 26.2582 64.7965 25.8518C64.7009 25.4454 64.5813 25.1227 64.4379 24.8836C64.3184 24.6446 64.151 24.4772 63.9359 24.3816C63.7446 24.2621 63.5056 24.2023 63.2187 24.2023C63.1231 24.2023 63.0275 24.2023 62.9319 24.2023C62.8362 24.2023 62.7406 24.2023 62.645 24.2023C62.5494 24.2023 62.4537 24.2023 62.3581 24.2023C62.2864 24.2023 62.2147 24.2143 62.143 24.2382C62.0713 24.2382 61.9995 24.2382 61.9278 24.2382L61.6051 18.1781C61.8681 18.202 62.0952 18.2259 62.2864 18.2498C62.5016 18.2498 62.7048 18.2498 62.896 18.2498C63.0872 18.2498 63.2665 18.2498 63.4339 18.2498C63.6251 18.2498 63.8283 18.2498 64.0435 18.2498C64.426 18.2498 64.7248 18.1542 64.9399 17.963C65.179 17.7717 65.3463 17.4729 65.4419 17.0665C65.5376 16.6601 65.5854 16.1103 65.5854 15.417C65.5854 14.8911 65.5495 14.4608 65.4778 14.1261C65.43 13.7676 65.3344 13.4926 65.1909 13.3014C65.0475 13.1102 64.8682 12.9787 64.6531 12.907C64.4618 12.8113 64.2108 12.7635 63.9 12.7635C63.8044 12.7635 63.6729 12.7635 63.5056 12.7635C63.3383 12.7635 63.159 12.7755 62.9677 12.7994C62.7765 12.7994 62.5733 12.8113 62.3581 12.8352C62.143 12.8352 61.9278 12.8472 61.7127 12.8711C61.5214 12.8711 61.3302 12.8831 61.1389 12.907C60.9477 12.907 60.7923 12.9189 60.6728 12.9428L62.7526 11.2575C62.7526 13.2655 62.7526 15.3214 62.7526 17.4251C62.7765 19.5288 62.8123 21.5488 62.8601 23.4852C62.9319 25.4215 63.0155 27.1905 63.1111 28.7922C63.2068 30.37 63.3383 31.6728 63.5056 32.7007H45.3613C45.4091 31.4098 45.445 30.095 45.4689 28.7563C45.5167 27.4176 45.5406 25.9833 45.5406 24.4533C45.5645 22.8995 45.5764 21.1663 45.5764 19.2539C45.5764 16.4091 45.5645 13.9468 45.5406 11.8671C45.5167 9.76338 45.4569 7.74336 45.3613 5.80701Z" fill="#212121"/>
<path d="M91.7006 21.4054C92.3938 21.4054 93.1947 21.4173 94.1031 21.4412C95.0354 21.4412 96.0036 21.4412 97.0076 21.4412C98.0356 21.4412 99.0276 21.4532 99.9839 21.4771C100.964 21.4771 101.825 21.4771 102.566 21.4771C103.259 21.4771 104.06 21.4771 104.968 21.4771C105.9 21.4771 106.857 21.4771 107.837 21.4771C108.841 21.4771 109.785 21.4771 110.67 21.4771C111.578 21.4532 112.355 21.4293 113 21.4054L113.574 28.1826C112.714 28.1587 111.793 28.1467 110.813 28.1467C109.833 28.1228 108.841 28.1109 107.837 28.1109C106.833 28.1109 105.877 28.1109 104.968 28.1109C104.06 28.1109 103.247 28.1109 102.53 28.1109C101.837 28.1109 101.024 28.1109 100.091 28.1109C99.183 28.1109 98.2148 28.1109 97.1869 28.1109C96.1829 28.1109 95.1788 28.1228 94.1748 28.1467C93.1947 28.1467 92.2743 28.1587 91.4137 28.1826L91.7006 21.4054ZM123.794 32.7007H103.749C103.797 32.0792 103.833 31.374 103.857 30.5851C103.88 29.7723 103.892 28.8998 103.892 27.9674C103.892 27.0112 103.88 26.0072 103.857 24.9553C103.857 23.8796 103.833 22.7919 103.785 21.6922C103.737 20.5926 103.653 19.481 103.534 18.3574C103.438 17.2339 103.307 16.1223 103.139 15.0226C103.044 14.3771 102.936 13.648 102.817 12.8352C102.697 12.0225 102.59 11.2455 102.494 10.5045C102.422 9.73947 102.351 9.09402 102.279 8.5681L103.713 10.5045H101.024L102.458 8.5681C102.41 9.09402 102.339 9.73947 102.243 10.5045C102.147 11.2455 102.052 12.0225 101.956 12.8352C101.884 13.6241 101.789 14.3532 101.669 15.0226C101.502 16.3374 101.358 17.6761 101.239 19.0387C101.119 20.4013 101.024 21.752 100.952 23.0907C100.904 24.4055 100.88 25.6725 100.88 26.8917C100.88 28.087 100.892 29.1866 100.916 30.1907C100.94 31.1708 100.988 32.0075 101.06 32.7007H82.8794C83.1185 31.7206 83.3695 30.5731 83.6325 29.2583C83.8954 27.9435 84.1703 26.5212 84.4572 24.9912C84.7441 23.4613 85.007 21.9074 85.2461 20.3296C85.5091 18.728 85.7601 17.1741 85.9991 15.668C86.2382 14.1381 86.4533 12.7157 86.6446 11.4009C86.8358 10.0861 86.9912 8.95059 87.1107 7.99437C87.2303 7.01424 87.302 6.28512 87.3259 5.80701H118.917C118.965 6.30903 119.06 7.0501 119.204 8.03023C119.347 8.98645 119.527 10.1339 119.742 11.4726C119.957 12.7874 120.184 14.2098 120.423 15.7398C120.686 17.2458 120.961 18.7997 121.248 20.4013C121.535 21.9791 121.822 23.533 122.108 25.0629C122.419 26.569 122.706 27.9794 122.969 29.2942C123.256 30.609 123.531 31.7445 123.794 32.7007Z" fill="#212121"/>
<path d="M142.9 32.7007H124.362C124.409 31.7445 124.433 30.7763 124.433 29.7962C124.457 28.7922 124.469 27.7523 124.469 26.6765C124.469 25.6008 124.469 24.4533 124.469 23.2341C124.469 22.015 124.469 20.6882 124.469 19.2539C124.469 17.8195 124.469 16.4928 124.469 15.2736C124.469 14.0544 124.469 12.907 124.469 11.8312C124.469 10.7316 124.457 9.69166 124.433 8.71153C124.433 7.73141 124.409 6.76323 124.362 5.80701H142.9C142.876 6.76323 142.853 7.73141 142.829 8.71153C142.829 9.69166 142.829 10.7196 142.829 11.7953C142.829 12.8711 142.829 14.0186 142.829 15.2377C142.829 16.4569 142.829 17.7837 142.829 19.218C142.829 20.6523 142.829 21.9791 142.829 23.1983C142.829 24.4175 142.829 25.5769 142.829 26.6765C142.853 27.7523 142.865 28.7922 142.865 29.7962C142.888 30.7763 142.9 31.7445 142.9 32.7007Z" fill="#212121"/>
<path d="M144.817 32.7007C144.817 30.86 144.829 28.8759 144.853 26.7483C144.877 24.6207 144.889 22.1225 144.889 19.2539C144.889 17.3414 144.889 15.6202 144.889 14.0903C144.913 12.5364 144.913 11.0901 144.889 9.75142C144.889 8.38881 144.865 7.074 144.817 5.80701H164.539C164.587 6.02216 164.647 6.28512 164.718 6.59589C164.814 6.90667 164.934 7.2533 165.077 7.63578C165.22 8.01827 165.352 8.41272 165.471 8.81911C165.591 9.2255 165.723 9.6319 165.866 10.0383C166.009 10.4447 166.153 10.8511 166.296 11.2575C166.464 11.64 166.583 12.0105 166.655 12.3691C166.942 13.158 167.205 13.9708 167.444 14.8074C167.683 15.6441 167.922 16.5167 168.161 17.4251C168.4 18.3335 168.591 19.3017 168.735 20.3296L167.408 16.4928L168.77 16.2418L168.376 20.3296C168.256 19.3017 168.161 18.2857 168.089 17.2817C168.017 16.2537 167.958 15.2975 167.91 14.413C167.886 13.5285 167.85 12.7516 167.802 12.0822C167.778 11.6041 167.754 11.1379 167.731 10.6837C167.731 10.2295 167.719 9.77533 167.695 9.32113C167.695 8.86692 167.683 8.43662 167.659 8.03023C167.659 7.59993 167.647 7.20549 167.623 6.8469C167.623 6.46441 167.611 6.11778 167.587 5.80701H182.504C182.48 6.42856 182.456 7.20549 182.432 8.1378C182.409 9.07012 182.385 10.122 182.361 11.2933C182.337 12.4647 182.313 13.7197 182.289 15.0585C182.289 16.3972 182.289 17.7837 182.289 19.218C182.289 22.2301 182.289 24.8119 182.289 26.9634C182.313 29.091 182.373 31.0034 182.468 32.7007H163.212C163.045 32.3183 162.89 31.9477 162.746 31.5891C162.603 31.2066 162.471 30.8481 162.352 30.5134C162.232 30.1548 162.101 29.8082 161.957 29.4735C161.838 29.1388 161.706 28.7922 161.563 28.4336C161.443 28.075 161.3 27.7284 161.133 27.3937C160.702 26.3419 160.332 25.29 160.021 24.2382C159.71 23.1624 159.423 22.0986 159.16 21.0468C158.897 19.9949 158.623 18.9431 158.336 17.8913L160.057 21.9791L158.73 22.3377L158.766 17.7837C159.005 19.1702 159.172 20.4372 159.268 21.5847C159.364 22.7082 159.435 23.8079 159.483 24.8836C159.555 25.9355 159.615 27.059 159.662 28.2543C159.686 28.828 159.698 29.342 159.698 29.7962C159.722 30.2504 159.734 30.6688 159.734 31.0513C159.734 31.4098 159.734 31.7326 159.734 32.0194C159.758 32.2824 159.794 32.5095 159.842 32.7007H144.817Z" fill="#212121"/>
<circle cx="20" cy="20" r="20" fill="#212121"/>
<path d="M19.8644 4C20.6592 16.1582 34.3492 14.5782 34.3492 20.0022C34.3492 24.4242 27.8462 26.7942 19.8211 26.7942C11.7959 26.7942 5.2929 24.4242 5.2929 20.0022C5.28809 14.5782 18.9781 16.1582 19.7777 4C10.5049 4.02409 3 11.2015 3 20.06C3 28.9185 10.529 36.1199 19.8211 36.1199C29.1131 36.1199 36.6421 28.9281 36.6421 20.06C36.6421 11.1918 29.1324 4.02409 19.8644 4Z" fill="#E6FF00"/>
</svg>
