<svg width="241" height="40" viewBox="0 0 241 40" fill="none" xmlns="http://www.w3.org/2000/svg">
<circle cx="20" cy="20" r="20" fill="#212121"/>
<path d="M19.8644 4C20.6592 16.1582 34.3492 14.5782 34.3492 20.0022C34.3492 24.4242 27.8462 26.7942 19.8211 26.7942C11.7959 26.7942 5.2929 24.4242 5.2929 20.0022C5.28809 14.5782 18.9781 16.1582 19.7777 4C10.5049 4.02409 3 11.2015 3 20.06C3 28.9185 10.529 36.1199 19.8211 36.1199C29.1131 36.1199 36.6421 28.9281 36.6421 20.06C36.6421 11.1918 29.1324 4.02409 19.8644 4Z" fill="#E6FF00"/>
<path d="M62.219 15.24C63.539 15.24 64.139 14.62 64.139 13.28C64.139 11.68 63.459 11.32 61.959 11.32C61.539 11.32 60.559 11.34 59.779 11.36C59.779 12.66 59.779 13.96 59.799 15.2C60.359 15.22 61.239 15.22 62.219 15.24ZM65.379 16.92V17.04C67.439 17.3 68.259 17.9 68.759 19.92C69.079 21.06 69.379 22.32 69.579 23H65.119C64.379 23 64.239 22.74 63.899 21.2C63.419 18.68 63.139 18.24 61.919 18.24C61.199 18.24 60.779 18.22 59.819 18.24C59.859 20.16 59.919 21.82 60.039 23H54.979C55.019 20.82 55.059 18.7 55.059 15.5C55.059 12.32 55.039 10.16 54.979 8H63.159C66.819 8 68.919 9.36 68.919 12.52C68.919 15.26 67.919 16.52 65.379 16.92ZM78.2448 17.06H79.9648C79.6448 15.6 79.3048 14.1 78.9648 12.8C78.6648 11.78 78.4448 10.8 78.2848 10.08H78.2248C78.0448 10.8 77.8248 11.76 77.5248 12.84C77.2248 14.14 76.8848 15.62 76.5448 17.06H78.2448ZM86.6848 23H81.0848C81.0248 22.46 80.8648 21.42 80.6048 20.14C79.7448 20.14 78.9048 20.14 78.2448 20.14C77.6248 20.14 76.7648 20.14 75.8848 20.14C75.6248 21.38 75.4248 22.4 75.3448 23H70.2248C71.4448 19.24 73.8648 10.08 74.3648 8H82.3848C82.9448 10.1 85.3848 19.18 86.6848 23ZM93.1645 23H88.0845C88.1445 20.84 88.1445 18.68 88.1445 15.5C88.1445 12.3 88.1445 10.14 88.0845 8H93.1645C93.1245 10.12 93.1245 12.28 93.1245 15.48C93.1245 18.66 93.1245 20.82 93.1645 23ZM105.82 8H110.16C110.12 9.44 110.1 12.3 110.1 15.48C110.1 18.8 110.1 21.06 110.14 23H105.04C104.4 21.66 102.7 18.92 101.26 16.62C100.74 15.62 100.32 14.58 99.9603 13.56H99.9203C100.02 14.86 100.08 16.04 100.12 17.22C100.14 20.16 100.14 22.16 100.2 23H95.7603C95.7803 21 95.8003 18.7 95.8003 15.5C95.8003 12.32 95.8003 9.98 95.7603 8H101.38C101.78 8.96 103.74 12.1 105.04 14.5C105.44 15.28 105.8 16.2 106.1 17.12L106.14 17.1C106.04 15.96 105.98 14.88 105.98 13.92C105.96 11.72 105.9 9.22 105.82 8ZM116.968 8H128.968C128.948 8.56 128.948 9.42 128.948 10.2C128.948 10.94 128.948 11.88 128.968 12.48C127.788 12.46 126.608 12.44 125.528 12.44C125.528 17.26 125.548 21.94 125.608 23.02C124.908 22.96 123.768 22.96 122.968 22.96C122.168 22.96 121.068 22.96 120.348 23.02C120.408 21.94 120.428 17.28 120.428 12.44C119.348 12.44 118.168 12.46 116.968 12.48C116.988 11.88 116.988 10.94 116.988 10.2C116.988 9.42 116.988 8.56 116.968 8ZM137.844 15.24C139.164 15.24 139.764 14.62 139.764 13.28C139.764 11.68 139.084 11.32 137.584 11.32C137.164 11.32 136.184 11.34 135.404 11.36C135.404 12.66 135.404 13.96 135.424 15.2C135.984 15.22 136.864 15.22 137.844 15.24ZM141.004 16.92V17.04C143.064 17.3 143.884 17.9 144.384 19.92C144.704 21.06 145.004 22.32 145.204 23H140.744C140.004 23 139.864 22.74 139.524 21.2C139.044 18.68 138.764 18.24 137.544 18.24C136.824 18.24 136.404 18.22 135.444 18.24C135.484 20.16 135.544 21.82 135.664 23H130.604C130.644 20.82 130.684 18.7 130.684 15.5C130.684 12.32 130.664 10.16 130.604 8H138.784C142.444 8 144.544 9.36 144.544 12.52C144.544 15.26 143.544 16.52 141.004 16.92ZM147.03 8H159.07C159.05 8.42 159.03 9.18 159.03 9.76C159.03 10.38 159.03 11.24 159.07 11.68C156.63 11.66 153.97 11.64 151.97 11.64V13.74C154.35 13.74 156.93 13.74 158.89 13.68C158.87 14.42 158.87 16.16 158.87 16.96C156.93 16.92 154.33 16.9 151.97 16.9V19.08C153.99 19.08 156.79 19.06 159.07 19.04C159.03 19.52 159.03 20.4 159.03 21.1C159.03 21.7 159.03 22.5 159.07 23H147.03C147.09 20.98 147.09 18.7 147.09 15.5C147.09 12.32 147.09 9.94 147.03 8ZM168.264 17.06H169.984C169.664 15.6 169.324 14.1 168.984 12.8C168.684 11.78 168.464 10.8 168.304 10.08H168.244C168.064 10.8 167.844 11.76 167.544 12.84C167.244 14.14 166.904 15.62 166.564 17.06H168.264ZM176.704 23H171.104C171.044 22.46 170.884 21.42 170.624 20.14C169.764 20.14 168.924 20.14 168.264 20.14C167.644 20.14 166.784 20.14 165.904 20.14C165.644 21.38 165.444 22.4 165.364 23H160.244C161.464 19.24 163.884 10.08 164.384 8H172.404C172.964 10.1 175.404 19.18 176.704 23ZM182.044 18.1V18.38C182.044 19.52 182.564 19.94 184.284 19.94C185.964 19.94 186.424 19.54 186.424 18.8C186.424 17.94 185.964 17.36 183.364 17C178.784 16.38 177.664 14.84 177.664 12.24C177.664 9.4 179.704 7.72 184.304 7.72C189.424 7.72 191.004 9.2 191.004 11.88C191.004 12.16 190.984 12.46 190.964 12.78C190.364 12.74 189.384 12.72 188.524 12.72C187.844 12.72 187.184 12.72 186.764 12.74C186.784 12.6 186.784 12.46 186.784 12.34C186.784 11.54 186.344 11.02 184.444 11.02C182.984 11.02 182.524 11.44 182.524 12.08C182.524 12.8 182.844 13.4 185.664 13.82C189.764 14.44 191.204 15.74 191.204 18.66C191.204 21.58 189.364 23.28 184.524 23.28C179.324 23.28 177.624 21.86 177.624 19.08C177.624 18.74 177.624 18.38 177.664 18.02C178.324 18.08 179.324 18.14 180.264 18.14C180.944 18.14 181.584 18.14 182.044 18.1ZM202.623 8H207.603C207.563 9.3 207.523 10.58 207.523 12.52C207.523 13.72 207.563 15.6 207.563 17C207.563 21.04 205.743 23.28 200.363 23.28C194.983 23.28 193.143 21.04 193.143 17C193.143 15.6 193.183 13.72 193.183 12.52C193.183 10.58 193.143 9.3 193.103 8H198.203C198.123 10.36 198.103 14.36 198.103 16.64C198.103 18.4 198.823 19.16 200.483 19.16C202.083 19.16 202.703 18.4 202.703 16.64C202.703 14.36 202.663 10.36 202.623 8ZM217.375 15.24C218.695 15.24 219.295 14.62 219.295 13.28C219.295 11.68 218.615 11.32 217.115 11.32C216.695 11.32 215.715 11.34 214.935 11.36C214.935 12.66 214.935 13.96 214.955 15.2C215.515 15.22 216.395 15.22 217.375 15.24ZM220.535 16.92V17.04C222.595 17.3 223.415 17.9 223.915 19.92C224.235 21.06 224.535 22.32 224.735 23H220.275C219.535 23 219.395 22.74 219.055 21.2C218.575 18.68 218.295 18.24 217.075 18.24C216.355 18.24 215.935 18.22 214.975 18.24C215.015 20.16 215.075 21.82 215.195 23H210.135C210.175 20.82 210.215 18.7 210.215 15.5C210.215 12.32 210.195 10.16 210.135 8H218.315C221.975 8 224.075 9.36 224.075 12.52C224.075 15.26 223.075 16.52 220.535 16.92ZM235.141 8H239.981C238.761 10.38 236.201 16.42 235.401 18.48C235.421 20.72 235.461 22.38 235.481 23.02C234.721 22.98 233.541 22.98 232.641 22.98C231.721 22.98 230.541 22.98 229.761 23.02C229.821 22.38 229.861 20.68 229.861 18.42C229.061 16.24 226.481 10.22 225.281 8H230.721C230.961 8.78 231.601 10.88 232.121 12.64C232.381 13.56 232.621 14.44 232.801 15.14H232.961C233.141 14.46 233.361 13.6 233.641 12.72C234.221 10.92 234.941 8.78 235.141 8Z" fill="#212121"/>
<path d="M55.5093 33.7312V35.5364C55.9289 35.8193 56.4655 36.0145 57.1388 36.0145C58.2024 36.0145 58.7 35.3802 58.7 34.0337C58.7 32.7164 58.1926 32.1602 57.1681 32.1602C56.2899 32.1602 55.5093 32.6188 55.5093 33.7312ZM55.519 32.1505L55.5678 32.1602C55.9191 31.4284 56.6509 31.0088 57.7242 31.0088C59.2562 31.0088 60.0368 31.9065 60.0368 34.0239C60.0368 36.1316 59.1684 37.0976 57.695 37.0976C56.6509 37.0976 55.9484 36.6878 55.5873 36.2292L55.5288 36.2389C55.5386 36.3462 55.5386 36.4438 55.5386 36.5512V37H54.1432C54.1627 36.0535 54.1725 34.9314 54.1725 33.4385C54.1725 31.7016 54.1627 30.2965 54.153 29.4476H55.5581C55.5483 29.9843 55.5386 30.4429 55.5386 31.1454C55.5386 31.5162 55.5288 31.7992 55.519 32.1505ZM65.3191 31.1162H66.7632C66.207 32.4725 65.0751 35.4876 64.6653 36.4243C64.0799 37.8392 63.4944 38.5027 62.0893 38.5027C61.4551 38.5027 61.0257 38.3856 60.5867 38.2197C60.6452 37.9953 60.8306 37.2537 60.8599 37.0098C61.2502 37.1952 61.6405 37.2732 62.1381 37.2732C62.7333 37.2732 63.0846 37.0585 63.3676 36.4145L63.3773 36.3853C63.0846 36.3853 62.8504 36.3853 62.7138 36.4048C62.3235 35.5071 61.1721 32.492 60.5574 31.1162H62.1088C62.2357 31.5845 62.7919 32.9506 63.1431 33.9751C63.3871 34.6777 63.553 35.2534 63.6701 35.6925H63.7384C63.875 35.2631 64.0506 34.7167 64.2945 33.9849C64.6556 32.9506 65.1434 31.6919 65.3191 31.1162ZM73.462 33.7215C74.7598 33.7215 75.2964 33.3409 75.2964 32.3164C75.2964 31.3113 74.7305 30.9113 73.5303 30.9113C73.2278 30.9113 72.4765 30.921 72.0374 30.9308C72.0374 31.8968 72.0374 32.8433 72.0374 33.7019C72.3204 33.7117 72.8668 33.7215 73.462 33.7215ZM70.5738 29.6818H73.7743C75.6087 29.6818 76.7113 30.4234 76.7113 32.3359C76.7113 34.1215 75.5989 34.9607 73.7255 34.9607C73.1205 34.9607 72.7692 34.9509 72.0472 34.9314C72.0667 35.7413 72.0862 36.4536 72.1155 37H70.5738C70.6128 35.9462 70.6128 34.9021 70.6128 33.3409C70.6128 31.7894 70.6128 30.6673 70.5738 29.6818ZM82.24 31.1162H83.6353C83.6158 31.9163 83.606 32.6676 83.606 33.9849C83.606 35.2631 83.6158 36.2096 83.6353 37H82.2302C82.24 36.6195 82.24 36.3365 82.2595 35.9755L82.2204 35.9657C81.8594 36.7365 81.1276 37.0976 80.0543 37.0976C78.698 37.0976 77.9271 36.3853 77.9271 34.9704C77.9271 34.0239 77.9369 33.6239 77.9369 33.0384C77.9369 32.3456 77.9369 31.7309 77.9076 31.1162H79.3224C79.2932 32.0041 79.2932 33.1555 79.2932 34.6679C79.2932 35.5851 79.664 36.0145 80.6007 36.0145C81.5277 36.0145 82.2595 35.5266 82.2595 34.385C82.2595 32.3944 82.2497 31.7114 82.24 31.1162ZM86.6116 33.7312V35.5364C87.0312 35.8193 87.5678 36.0145 88.2411 36.0145C89.3047 36.0145 89.8023 35.3802 89.8023 34.0337C89.8023 32.7164 89.2949 32.1602 88.2704 32.1602C87.3922 32.1602 86.6116 32.6188 86.6116 33.7312ZM86.6213 32.1505L86.6701 32.1602C87.0214 31.4284 87.7532 31.0088 88.8266 31.0088C90.3585 31.0088 91.1391 31.9065 91.1391 34.0239C91.1391 36.1316 90.2707 37.0976 88.7973 37.0976C87.7532 37.0976 87.0507 36.6878 86.6896 36.2292L86.6311 36.2389C86.6409 36.3462 86.6409 36.4438 86.6409 36.5512V37H85.2455C85.265 36.0535 85.2748 34.9314 85.2748 33.4385C85.2748 31.7016 85.265 30.2965 85.2553 29.4476H86.6604C86.6506 29.9843 86.6409 30.4429 86.6409 31.1454C86.6409 31.5162 86.6311 31.7992 86.6213 32.1505ZM97.8753 34.6972V34.8045C97.8753 36.1121 97.2118 37.1268 95.0553 37.1268C93.2014 37.1268 92.0597 36.073 92.0597 34.0337C92.0597 32.0041 93.1916 30.9796 95.1041 30.9796C96.841 30.9796 97.8362 31.6821 97.8362 33.2726C97.8362 33.3311 97.846 33.3702 97.8362 33.419C97.6801 33.4092 97.4459 33.3995 97.1922 33.3995C96.9581 33.3995 96.7336 33.4092 96.5873 33.419V33.3214C96.5775 32.531 96.1774 32.1602 95.0944 32.1602C93.982 32.1602 93.3673 32.6676 93.3673 34.0239C93.3673 35.429 93.9722 35.9462 95.1041 35.9462C96.1774 35.9462 96.5873 35.4876 96.597 34.7948V34.6972C96.7727 34.7167 96.9873 34.7167 97.2118 34.7167C97.4557 34.7167 97.6996 34.707 97.8753 34.6972ZM103.558 34.0142C103.558 32.7164 102.855 32.1602 101.831 32.1602C100.816 32.1602 100.113 32.7067 100.113 34.0142C100.113 35.3217 100.806 35.9657 101.831 35.9657C102.875 35.9657 103.558 35.3119 103.558 34.0142ZM104.885 33.9751C104.885 35.9462 103.685 37.1268 101.831 37.1268C99.9866 37.1268 98.806 35.9462 98.806 33.9751C98.806 31.9944 100.055 30.9796 101.831 30.9796C103.607 30.9796 104.885 31.9944 104.885 33.9751Z" fill="#212121"/>
</svg>
